<svg width="33" height="33" viewBox="0 0 33 33" fill="none" xmlns="http://www.w3.org/2000/svg">
<path d="M12.254 25.4401C13.9431 25.4507 15.6176 25.1258 17.1802 24.4843C18.7428 23.8428 20.1625 22.8974 21.3569 21.703C22.5513 20.5086 23.4967 19.0889 24.1382 17.5263C24.7797 15.9636 25.1046 14.2892 25.094 12.6001V12.0101C25.9696 11.3686 26.7274 10.5802 27.334 9.68007C26.5095 10.0407 25.6371 10.2798 24.744 10.3901C25.6909 9.82585 26.4014 8.93773 26.744 7.89007C25.8615 8.41951 24.8938 8.7917 23.884 8.99007C23.2039 8.26543 22.304 7.78512 21.3235 7.62345C20.3429 7.46178 19.3364 7.62777 18.4597 8.09572C17.583 8.56367 16.885 9.30751 16.4736 10.2121C16.0622 11.1168 15.9604 12.1318 16.184 13.1001C14.39 13.012 12.6347 12.5471 11.0323 11.7356C9.42999 10.9241 8.01652 9.78415 6.88398 8.39007C6.31291 9.38124 6.13981 10.5524 6.39974 11.6664C6.65968 12.7804 7.33321 13.754 8.28398 14.3901C7.5826 14.363 6.89744 14.1712 6.28398 13.8301V13.8801C6.27775 14.9159 6.62671 15.9226 7.27269 16.7323C7.91867 17.5421 8.82266 18.106 9.83398 18.3301C9.18162 18.5055 8.49828 18.5329 7.83398 18.4101C8.12677 19.2935 8.68567 20.0646 9.43403 20.6179C10.1824 21.1711 11.0836 21.4792 12.014 21.5001C10.4232 22.7806 8.44608 23.4854 6.40398 23.5001C6.04594 23.4897 5.68873 23.4597 5.33398 23.4101C7.40094 24.727 9.80319 25.4213 12.254 25.4101" fill="white"/>
</svg>
