<svg width="33" height="33" viewBox="0 0 33 33" fill="none" xmlns="http://www.w3.org/2000/svg">
<path d="M23.0728 11.5341C23.8681 11.5341 24.5128 10.8893 24.5128 10.0941C24.5128 9.29876 23.8681 8.65405 23.0728 8.65405C22.2775 8.65405 21.6328 9.29876 21.6328 10.0941C21.6328 10.8893 22.2775 11.5341 23.0728 11.5341Z" fill="white"/>
<path d="M16.6659 10.3379C15.4472 10.3379 14.2558 10.6993 13.2425 11.3764C12.2291 12.0535 11.4394 13.0158 10.973 14.1418C10.5066 15.2678 10.3845 16.5067 10.6223 17.702C10.8601 18.8973 11.4469 19.9953 12.3087 20.8571C13.1705 21.7189 14.2685 22.3057 15.4638 22.5435C16.6591 22.7813 17.898 22.6592 19.024 22.1928C20.15 21.7264 21.1123 20.9366 21.7894 19.9233C22.4665 18.91 22.8279 17.7186 22.8279 16.4999C22.8279 14.8656 22.1787 13.2983 21.0231 12.1427C19.8675 10.9871 18.3002 10.3379 16.6659 10.3379ZM16.6659 20.4999C15.8748 20.4999 15.1014 20.2653 14.4436 19.8258C13.7858 19.3862 13.2731 18.7615 12.9704 18.0306C12.6676 17.2997 12.5884 16.4955 12.7428 15.7195C12.8971 14.9436 13.2781 14.2309 13.8375 13.6715C14.3969 13.1121 15.1096 12.7311 15.8855 12.5767C16.6615 12.4224 17.4657 12.5016 18.1966 12.8044C18.9275 13.1071 19.5523 13.6198 19.9918 14.2776C20.4313 14.9354 20.6659 15.7088 20.6659 16.4999C20.6659 17.5608 20.2445 18.5782 19.4943 19.3283C18.7442 20.0785 17.7268 20.4999 16.6659 20.4999Z" fill="white"/>
<path d="M16.666 6.662C19.87 6.662 20.25 6.674 21.515 6.732C22.2759 6.74103 23.0295 6.88073 23.743 7.145C24.2607 7.34469 24.7308 7.65055 25.1231 8.04288C25.5155 8.43521 25.8213 8.90534 26.021 9.423C26.2853 10.1365 26.425 10.8902 26.434 11.651C26.492 12.916 26.504 13.296 26.504 16.501C26.504 19.706 26.492 20.084 26.434 21.349C26.425 22.1098 26.2853 22.8635 26.021 23.577C25.8213 24.0947 25.5155 24.5648 25.1231 24.9571C24.7308 25.3495 24.2607 25.6553 23.743 25.855C23.0295 26.1193 22.2759 26.259 21.515 26.268C20.25 26.326 19.87 26.338 16.666 26.338C13.462 26.338 13.082 26.326 11.817 26.268C11.0562 26.259 10.3025 26.1193 9.58902 25.855C9.07135 25.6553 8.60123 25.3495 8.20889 24.9571C7.81656 24.5648 7.51071 24.0947 7.31102 23.577C7.04675 22.8635 6.90705 22.1098 6.89802 21.349C6.84002 20.084 6.82802 19.704 6.82802 16.5C6.82802 13.296 6.84002 12.916 6.89802 11.651C6.90705 10.8902 7.04675 10.1365 7.31102 9.423C7.51071 8.90534 7.81656 8.43521 8.20889 8.04288C8.60123 7.65055 9.07135 7.34469 9.58902 7.145C10.3025 6.88073 11.0562 6.74103 11.817 6.732C13.082 6.674 13.462 6.662 16.666 6.662ZM16.666 4.5C13.407 4.5 12.998 4.514 11.718 4.572C10.7228 4.5921 9.73817 4.78077 8.80602 5.13C8.00874 5.4383 7.28467 5.90978 6.68023 6.51422C6.07579 7.11866 5.60431 7.84272 5.29602 8.64C4.94667 9.57247 4.758 10.5574 4.73802 11.553C4.68002 12.833 4.66602 13.24 4.66602 16.5C4.66602 19.76 4.68002 20.168 4.73802 21.448C4.75811 22.4432 4.94679 23.4278 5.29602 24.36C5.60431 25.1573 6.07579 25.8813 6.68023 26.4858C7.28467 27.0902 8.00874 27.5617 8.80602 27.87C9.73849 28.2193 10.7235 28.408 11.719 28.428C12.999 28.486 13.407 28.5 16.666 28.5C19.925 28.5 20.334 28.486 21.614 28.428C22.6096 28.408 23.5945 28.2193 24.527 27.87C25.3243 27.5617 26.0484 27.0902 26.6528 26.4858C27.2572 25.8813 27.7287 25.1573 28.037 24.36C28.386 23.4275 28.5744 22.4425 28.594 21.447C28.652 20.167 28.666 19.76 28.666 16.5C28.666 13.24 28.652 12.832 28.594 11.552C28.5739 10.5568 28.3852 9.57216 28.036 8.64C27.7277 7.84272 27.2562 7.11866 26.6518 6.51422C26.0474 5.90978 25.3233 5.4383 24.526 5.13C23.5935 4.781 22.6085 4.59266 21.613 4.573C20.333 4.513 19.926 4.5 16.666 4.5Z" fill="white"/>
</svg>
