<svg width="32" height="33" viewBox="0 0 32 33" fill="none" xmlns="http://www.w3.org/2000/svg">
<path d="M13.6462 15.407C13.3556 15.3824 13.0644 15.4462 12.8107 15.5898C12.557 15.7335 12.3525 15.9504 12.2241 16.2122C12.0957 16.474 12.0494 16.7685 12.0911 17.0571C12.1328 17.3456 12.2607 17.6149 12.458 17.8296C12.6553 18.0443 12.9128 18.1944 13.1968 18.2604C13.4809 18.3263 13.7782 18.3049 14.0499 18.1991C14.3216 18.0932 14.555 17.9078 14.7195 17.6671C14.8841 17.4264 14.9721 17.1416 14.9722 16.85C14.98 16.6682 14.9518 16.4866 14.8894 16.3156C14.8269 16.1447 14.7314 15.9877 14.6083 15.8537C14.4851 15.7197 14.3367 15.6112 14.1717 15.5346C14.0066 15.4579 13.828 15.4146 13.6462 15.407ZM18.3912 15.407C18.1006 15.3824 17.8094 15.4462 17.5557 15.5898C17.302 15.7335 17.0975 15.9504 16.9691 16.2122C16.8407 16.474 16.7944 16.7685 16.8361 17.0571C16.8778 17.3456 17.0057 17.6149 17.203 17.8296C17.4003 18.0443 17.6578 18.1944 17.9418 18.2604C18.2259 18.3263 18.5232 18.3049 18.7949 18.1991C19.0666 18.0932 19.3 17.9078 19.4645 17.6671C19.6291 17.4264 19.7171 17.1416 19.7172 16.85C19.725 16.6682 19.6968 16.4866 19.6344 16.3156C19.5719 16.1447 19.4764 15.9877 19.3533 15.8537C19.2301 15.7197 19.0817 15.6112 18.9167 15.5346C18.7516 15.4579 18.573 15.4146 18.3912 15.407Z" fill="white"/>
<path d="M24.71 4.5H7.29001C6.93916 4.50079 6.59191 4.57069 6.26809 4.70571C5.94426 4.84073 5.65021 5.03822 5.40273 5.28691C5.15525 5.5356 4.95918 5.83061 4.82574 6.15509C4.6923 6.47957 4.62409 6.82716 4.62501 7.178V24.754C4.62409 25.1048 4.6923 25.4524 4.82574 25.7769C4.95918 26.1014 5.15525 26.3964 5.40273 26.6451C5.65021 26.8938 5.94426 27.0913 6.26809 27.2263C6.59191 27.3613 6.93916 27.4312 7.29001 27.432H22.032L21.343 25.027L23.007 26.574L24.58 28.03L27.375 30.5V7.178C27.3759 6.82716 27.3077 6.47957 27.1743 6.15509C27.0408 5.83061 26.8448 5.5356 26.5973 5.28691C26.3498 5.03822 26.0558 4.84073 25.7319 4.70571C25.4081 4.57069 25.0609 4.50079 24.71 4.5ZM19.692 21.478C19.692 21.478 19.224 20.919 18.834 20.425C19.7763 20.2031 20.6098 19.6552 21.187 18.878C20.7192 19.1893 20.2177 19.4466 19.692 19.645C19.0872 19.9031 18.4547 20.0907 17.807 20.204C16.6936 20.409 15.5518 20.4046 14.44 20.191C13.7873 20.0633 13.1476 19.8762 12.529 19.632C12.2029 19.5066 11.8858 19.3589 11.58 19.19C11.541 19.164 11.502 19.151 11.463 19.125C11.4435 19.1153 11.4258 19.102 11.411 19.086C11.2863 19.018 11.1648 18.9443 11.047 18.865C11.6033 19.6259 12.408 20.1685 13.322 20.399C12.932 20.893 12.451 21.478 12.451 21.478C11.6788 21.4988 10.9133 21.3295 10.2219 20.9849C9.53046 20.6403 8.93435 20.1311 8.48601 19.502C8.52821 16.8665 9.16831 14.275 10.358 11.923C11.405 11.1007 12.6814 10.6237 14.011 10.558L14.141 10.714C12.8901 11.0236 11.7227 11.605 10.722 12.417C10.722 12.417 11.008 12.261 11.489 12.04C12.4235 11.6134 13.4194 11.337 14.44 11.221C14.5128 11.2059 14.5867 11.1972 14.661 11.195C15.5322 11.0815 16.4138 11.0728 17.287 11.169C18.6603 11.3258 19.9895 11.7498 21.2 12.417C20.25 11.6437 19.1467 11.081 17.963 10.766L18.145 10.558C19.4746 10.6237 20.7511 11.1007 21.798 11.923C22.9877 14.275 23.6278 16.8665 23.67 19.502C23.218 20.1305 22.6194 20.639 21.9261 20.9834C21.2328 21.3278 20.4659 21.4976 19.692 21.478Z" fill="white"/>
</svg>
