<svg width="81" height="80" viewBox="0 0 81 80" fill="none" xmlns="http://www.w3.org/2000/svg">
<path d="M40.6664 60C40.2527 60 39.8454 59.8969 39.4814 59.7L6.98145 42.2L9.35144 37.8L40.6664 54.66L71.9814 37.8L74.3514 42.2L41.8514 59.7C41.4875 59.8969 41.0802 60 40.6664 60Z" fill="#FAFAFA"/>
<path d="M40.6664 75C40.2527 75 39.8454 74.8969 39.4814 74.7L6.98145 57.2L9.35144 52.8L40.6664 69.66L71.9814 52.8L74.3514 57.2L41.8514 74.7C41.4875 74.8969 41.0802 75 40.6664 75V75Z" fill="#FAFAFA"/>
<path d="M40.6655 45C40.2518 44.9999 39.8445 44.8968 39.4805 44.7L6.98053 27.2C6.58366 26.9858 6.25212 26.6682 6.02104 26.2809C5.78997 25.8936 5.66797 25.451 5.66797 25C5.66797 24.549 5.78997 24.1064 6.02104 23.7191C6.25212 23.3318 6.58366 23.0142 6.98053 22.8L39.4805 5.29998C39.8446 5.10349 40.2518 5.00061 40.6655 5.00061C41.0792 5.00061 41.4865 5.10349 41.8505 5.29998L74.3505 22.8C74.7474 23.0142 75.0789 23.3318 75.31 23.7191C75.5411 24.1064 75.6631 24.549 75.6631 25C75.6631 25.451 75.5411 25.8936 75.31 26.2809C75.0789 26.6682 74.7474 26.9858 74.3505 27.2L41.8505 44.7C41.4866 44.8968 41.0793 44.9999 40.6655 45ZM13.4405 25L40.6655 39.66L67.8905 25L40.6655 10.34L13.4405 25Z" fill="#FAFAFA"/>
</svg>
