<svg width="32" height="33" viewBox="0 0 32 33" fill="none" xmlns="http://www.w3.org/2000/svg">
<path d="M29.4108 9.75995C29.2514 9.16799 28.9394 8.62826 28.5059 8.19479C28.0724 7.76131 27.5327 7.44929 26.9408 7.28995C24.7608 6.69995 16.0008 6.69995 16.0008 6.69995C16.0008 6.69995 7.24075 6.69995 5.06075 7.28995C4.46879 7.44929 3.92906 7.76131 3.49559 8.19479C3.06211 8.62826 2.75009 9.16799 2.59075 9.75995C2.1837 11.9832 1.98617 14.2398 2.00075 16.5C1.98617 18.7601 2.1837 21.0167 2.59075 23.24C2.75009 23.8319 3.06211 24.3716 3.49559 24.8051C3.92906 25.2386 4.46879 25.5506 5.06075 25.7099C7.24075 26.2999 16.0008 26.2999 16.0008 26.2999C16.0008 26.2999 24.7608 26.2999 26.9408 25.7099C27.5327 25.5506 28.0724 25.2386 28.5059 24.8051C28.9394 24.3716 29.2514 23.8319 29.4108 23.24C29.8178 21.0167 30.0153 18.7601 30.0008 16.5C30.0153 14.2398 29.8178 11.9832 29.4108 9.75995ZM13.2008 20.7V12.3L20.4708 16.5L13.2008 20.7Z" fill="white"/>
</svg>
