<svg width="81" height="80" viewBox="0 0 81 80" fill="none" xmlns="http://www.w3.org/2000/svg">
<path d="M70.333 23.3333L40.333 6.66663L10.333 23.3333V56.6666L40.333 73.3333L70.333 56.6666V23.3333ZM40.333 14.3L60.033 25.2333L49.9997 30.8C47.5663 28.2666 44.133 26.6666 40.333 26.6666C36.533 26.6666 33.0997 28.2666 30.6663 30.8L20.633 25.2333L40.333 14.3ZM36.9997 63.8666L16.9997 52.7666V30.8666L27.433 36.6666C27.133 37.7 26.9997 38.8333 26.9997 40C26.9997 46.2 31.233 51.4333 36.9997 52.9V63.8666ZM33.6663 40C33.6663 36.3333 36.6663 33.3333 40.333 33.3333C43.9997 33.3333 46.9997 36.3333 46.9997 40C46.9997 43.6666 43.9997 46.6666 40.333 46.6666C36.6663 46.6666 33.6663 43.6666 33.6663 40ZM43.6663 63.8666V52.9333C49.433 51.4666 53.6663 46.2333 53.6663 40.0333C53.6663 38.8666 53.533 37.7333 53.233 36.6666L63.6663 30.8666V52.7666L43.6663 63.8666Z" fill="#FAFAFA"/>
</svg>
