<svg width="80" height="80" viewBox="0 0 80 80" fill="none" xmlns="http://www.w3.org/2000/svg">
<path d="M46.4117 74.9999C41.3114 74.9999 37.5883 73.797 35.2424 71.3911C33.0695 69.3544 31.8085 66.5582 31.7349 63.6137C31.7082 62.7188 31.9199 61.8324 32.3491 61.0419C32.7501 60.3596 33.3284 59.7934 34.0252 59.4007C34.8353 59.0052 35.7281 58.7993 36.6333 58.7993C37.5384 58.7993 38.4313 59.0052 39.2413 59.4007C39.9364 59.7918 40.5114 60.3587 40.9061 61.0419C41.3483 61.8284 41.5681 62.7162 41.5429 63.6137C41.5881 64.6847 41.2742 65.7409 40.6491 66.621C40.1297 67.339 39.3865 67.8726 38.531 68.1419C39.369 69.1869 40.5548 69.9111 41.8818 70.1882C43.3664 70.6101 44.9039 70.827 46.4498 70.8325C48.4945 70.8516 50.4976 70.2672 52.1982 69.1554C53.9633 67.9344 55.2794 66.1889 55.9514 64.1778C56.804 61.7848 57.2198 59.2636 57.1799 56.7294C57.2492 54.0879 56.7941 51.4583 55.8399 48.9865C55.1221 47.0092 53.7601 45.318 51.9638 44.1735C50.2938 43.1389 48.3554 42.5957 46.3792 42.6083C44.6577 42.7519 42.9978 43.3038 41.5429 44.2164L37.9563 45.9779V44.2108L54.0748 23.0382H31.7349V45.01C31.672 46.5954 32.1002 48.1623 32.9634 49.505C33.3814 50.0898 33.9465 50.5591 34.604 50.8675C35.2615 51.1758 35.9892 51.3128 36.7166 51.2651C38.0606 51.239 39.3605 50.7907 40.4246 49.9862C41.6315 49.1207 42.6816 48.063 43.5311 46.8572C43.6085 46.6466 43.7493 46.4638 43.9349 46.3332C44.0848 46.2064 44.2763 46.1366 44.4743 46.1369C44.8623 46.1709 45.2294 46.3238 45.5235 46.5738C45.8956 46.9828 46.0972 47.5138 46.0883 48.0615C46.0449 48.4299 45.9775 48.7953 45.8864 49.1552C45.0935 51.0337 43.765 52.6489 42.0597 53.8079C40.4741 54.8597 38.6007 55.4174 36.6855 55.4076C31.8478 55.4076 28.4971 54.4743 26.6332 52.6077C25.676 51.5767 24.938 50.3693 24.4624 49.0561C23.9867 47.7429 23.7829 46.35 23.8627 44.9588V23.0382H12.5V18.9566H23.915V9.6485L21.3027 7.08782V5H28.8868L31.7349 6.4435V18.9566L61.2466 18.8681L64.1808 21.7551L46.0883 39.5665C47.1813 39.136 48.3324 38.8631 49.5055 38.7562C51.8276 38.8563 54.0933 39.4895 56.1195 40.6049C58.4655 41.6967 60.4428 43.4241 61.8171 45.5824C63.048 47.4098 63.9192 49.4464 64.3856 51.5873C64.7698 53.2757 64.9757 54.9984 64.9998 56.728C65.0132 60.0283 64.2498 63.2872 62.7688 66.2518C61.3645 69.1238 59 71.4396 56.0672 72.8153C53.0641 74.2634 49.7592 75.0112 46.4117 74.9999V74.9999Z" fill="#FAFAFA"/>
</svg>
